v 2737 -51 102
v 2737 -51 2318
v 2635 -51 2420
v 3346 -51 2318
v 3346 -51 102
v 2635 -51 0
v 3448 -51 2420
v 3448 -51 0
v 3346 0 102
v 3346 0 2318
v 3448 0 2420
v 2737 0 2318
v 2737 0 102
v 3448 0 0
v 2635 0 2420
v 2635 0 0
vn 0 -1 0
vn 0 1 0
vn 0 0 1
vn 1 0 0
vn 0 0 -1
vn -1 0 0
f 1//1 2//1 3//1
f 4//1 3//1 2//1
f 5//1 1//1 6//1
f 3//1 6//1 1//1
f 5//1 7//1 4//1
f 3//1 4//1 7//1
f 6//1 8//1 5//1
f 7//1 5//1 8//1
f 9//2 10//2 11//2
f 12//2 11//2 10//2
f 13//2 9//2 14//2
f 11//2 14//2 9//2
f 13//2 15//2 12//2
f 11//2 12//2 15//2
f 14//2 16//2 13//2
f 15//2 13//2 16//2
f 11//3 15//3 3//3
f 3//3 7//3 11//3
f 14//4 11//4 7//4
f 7//4 8//4 14//4
f 16//5 14//5 8//5
f 8//5 6//5 16//5
f 15//6 16//6 6//6
f 6//6 3//6 15//6
f 12//5 10//5 4//5
f 4//5 2//5 12//5
f 13//4 12//4 2//4
f 2//4 1//4 13//4
f 9//3 13//3 1//3
f 1//3 5//3 9//3
f 10//6 9//6 5//6
f 5//6 4//6 10//6
