v 2506 -11134 3100
v 4125 -11134 3100
v 2506 -11674 3100
v 4125 -17383 3100
v 417 -17383 3100
v 417 -11674 3100
v 417 -17383 3119
v 2506 -11674 3119
v 417 -11674 3119
v 4125 -17383 3119
v 4125 -11134 3119
v 2506 -11134 3119
vn 0 0 -1
vn 0 0 1
vn 0 -1 0
vn -1 0 0
vn 0 1 0
vn 1 0 0
f 1//1 2//1 3//1
f 3//1 2//1 4//1
f 3//1 5//1 6//1
f 5//1 3//1 4//1
f 7//2 8//2 9//2
f 8//2 7//2 10//2
f 8//2 11//2 12//2
f 11//2 8//2 10//2
f 4//3 10//3 7//3
f 7//3 5//3 4//3
f 5//4 7//4 9//4
f 9//4 6//4 5//4
f 6//5 9//5 8//5
f 8//5 3//5 6//5
f 3//4 8//4 12//4
f 12//4 1//4 3//4
f 1//5 12//5 11//5
f 11//5 2//5 1//5
f 2//6 11//6 10//6
f 10//6 4//6 2//6
