v 6418 -8809 3100
v 7369 -8075 3100
v 7369 -11550 3100
v 7321 -11550 3100
v 6418 -7945 3100
v 7342 -6250 3100
v 8383 -8075 3100
v 8383 -6250 3100
v 7342 -6126 3100
v 6478 -6250 3100
v 6478 -6126 3100
v 7321 -11674 3100
v 6457 -11550 3100
v 6418 -11550 3100
v 6418 -6250 3100
v 6294 -7945 3100
v 6294 -8809 3100
v 6457 -11674 3100
v 6418 -8809 3119
v 6418 -11550 3119
v 6457 -11550 3119
v 7321 -11550 3119
v 7369 -8075 3119
v 6418 -7945 3119
v 6294 -7945 3119
v 6294 -8809 3119
v 6478 -6250 3119
v 6418 -6250 3119
v 6457 -11674 3119
v 7321 -11674 3119
v 7369 -11550 3119
v 7342 -6250 3119
v 7342 -6126 3119
v 8383 -6250 3119
v 8383 -8075 3119
v 6478 -6126 3119
vn 0 0 -1
vn 0 0 1
vn 0 1 0
vn -1 0 0
vn 1 0 0
vn 0 -1 0
f 1//1 2//1 3//1
f 4//1 1//1 3//1
f 5//1 6//1 2//1
f 7//1 2//1 8//1
f 9//1 6//1 10//1
f 8//1 2//1 6//1
f 9//1 10//1 11//1
f 6//1 5//1 10//1
f 4//1 12//1 13//1
f 1//1 4//1 13//1
f 14//1 1//1 13//1
f 5//1 2//1 1//1
f 10//1 5//1 15//1
f 16//1 5//1 17//1
f 5//1 1//1 17//1
f 13//1 12//1 18//1
f 19//2 20//2 21//2
f 22//2 19//2 21//2
f 23//2 24//2 19//2
f 25//2 26//2 24//2
f 24//2 27//2 28//2
f 26//2 19//2 24//2
f 21//2 29//2 30//2
f 19//2 22//2 31//2
f 31//2 23//2 19//2
f 32//2 24//2 23//2
f 27//2 32//2 33//2
f 24//2 32//2 27//2
f 32//2 23//2 34//2
f 35//2 34//2 23//2
f 27//2 33//2 36//2
f 22//2 21//2 30//2
f 15//3 28//3 27//3
f 27//3 10//3 15//3
f 10//4 27//4 36//4
f 36//4 11//4 10//4
f 11//3 36//3 33//3
f 33//3 9//3 11//3
f 9//5 33//5 32//5
f 32//5 6//5 9//5
f 6//3 32//3 34//3
f 34//3 8//3 6//3
f 8//5 34//5 35//5
f 35//5 7//5 8//5
f 7//6 35//6 23//6
f 23//6 2//6 7//6
f 2//5 23//5 31//5
f 31//5 3//5 2//5
f 3//6 31//6 22//6
f 22//6 4//6 3//6
f 4//5 22//5 30//5
f 30//5 12//5 4//5
f 12//6 30//6 29//6
f 29//6 18//6 12//6
f 18//4 29//4 21//4
f 21//4 13//4 18//4
f 13//6 21//6 20//6
f 20//6 14//6 13//6
f 14//4 20//4 19//4
f 19//4 1//4 14//4
f 1//6 19//6 26//6
f 26//6 17//6 1//6
f 17//4 26//4 25//4
f 25//4 16//4 17//4
f 16//3 25//3 24//3
f 24//3 5//3 16//3
f 5//4 24//4 28//4
f 28//4 15//4 5//4
