v 6200 -17383 0
v 417 -17383 0
v 6200 -13800 0
v 417 -12600 0
v 6226 -12600 0
v 8383 -17383 0
v 6324 -17383 0
v 6324 -13800 0
v 8383 -8075 0
v 6226 -10995 0
v 6350 -10995 0
v 6350 -10053 0
v 6226 -10053 0
v 6226 -9291 0
v 6350 -9291 0
v 6350 -8075 0
v 6350 -10053 19
v 6226 -9291 19
v 6226 -10053 19
v 6350 -10995 19
v 6226 -10995 19
v 6226 -12600 19
v 8383 -8075 19
v 6350 -8075 19
v 6350 -9291 19
v 417 -12600 19
v 6200 -13800 19
v 417 -17383 19
v 6200 -17383 19
v 6324 -13800 19
v 8383 -17383 19
v 6324 -17383 19
vn 0 0 -1
vn 0 0 1
vn -1 0 0
vn 0 -1 0
vn 1 0 0
vn 0 1 0
f 1//1 2//1 3//1
f 3//1 4//1 5//1
f 4//1 3//1 2//1
f 6//1 7//1 8//1
f 6//1 8//1 9//1
f 3//1 5//1 8//1
f 9//1 8//1 5//1
f 10//1 11//1 5//1
f 12//1 13//1 14//1
f 12//1 15//1 9//1
f 12//1 14//1 15//1
f 16//1 9//1 15//1
f 12//1 9//1 11//1
f 11//1 9//1 5//1
f 17//2 18//2 19//2
f 20//2 21//2 22//2
f 23//2 24//2 25//2
f 25//2 17//2 23//2
f 18//2 17//2 25//2
f 23//2 17//2 20//2
f 20//2 22//2 23//2
f 26//2 27//2 22//2
f 27//2 26//2 28//2
f 28//2 29//2 27//2
f 30//2 31//2 23//2
f 22//2 27//2 30//2
f 32//2 31//2 30//2
f 30//2 23//2 22//2
f 7//3 32//3 30//3
f 30//3 8//3 7//3
f 8//4 30//4 27//4
f 27//4 3//4 8//4
f 3//5 27//5 29//5
f 29//5 1//5 3//5
f 1//4 29//4 28//4
f 28//4 2//4 1//4
f 2//3 28//3 26//3
f 26//3 4//3 2//3
f 4//6 26//6 22//6
f 22//6 5//6 4//6
f 5//3 22//3 21//3
f 21//3 10//3 5//3
f 10//6 21//6 20//6
f 20//6 11//6 10//6
f 11//3 20//3 17//3
f 17//3 12//3 11//3
f 12//4 17//4 19//4
f 19//4 13//4 12//4
f 13//3 19//3 18//3
f 18//3 14//3 13//3
f 14//6 18//6 25//6
f 25//6 15//6 14//6
f 15//3 25//3 24//3
f 24//3 16//3 15//3
f 16//6 24//6 23//6
f 23//6 9//6 16//6
f 9//5 23//5 31//5
f 31//5 6//5 9//5
f 6//4 31//4 32//4
f 32//4 7//4 6//4
