v 1231 -16220 610
v 571 -16220 610
v 571 -16270 610
v 1231 -16270 610
v 1231 -14440 610
v 571 -14440 610
v 571 -14491 610
v 1231 -14491 610
v 1231 -16270 0
v 571 -16270 0
v 571 -16220 0
v 1231 -16220 0
v 1231 -14491 0
v 571 -14491 0
v 571 -14440 0
v 1231 -14440 0
vn 0 0 1
vn 0 0 -1
vn -1 0 0
vn 0 -1 0
vn 1 0 0
vn 0 1 0
f 1//1 2//1 3//1
f 3//1 4//1 1//1
f 5//1 6//1 7//1
f 7//1 8//1 5//1
f 9//2 10//2 11//2
f 11//2 12//2 9//2
f 13//2 14//2 15//2
f 15//2 16//2 13//2
f 2//3 11//3 10//3
f 10//3 3//3 2//3
f 3//4 10//4 9//4
f 9//4 4//4 3//4
f 4//5 9//5 12//5
f 12//5 1//5 4//5
f 1//6 12//6 11//6
f 11//6 2//6 1//6
f 6//3 15//3 14//3
f 14//3 7//3 6//3
f 7//4 14//4 13//4
f 13//4 8//4 7//4
f 8//5 13//5 16//5
f 16//5 5//5 8//5
f 5//6 16//6 15//6
f 15//6 6//6 5//6
