v 1431 -6234 5700
v 417 -6234 5700
v 1431 -6250 5700
v 417 -9725 5700
v 1431 -9725 5700
v 417 -9725 3100
v 417 -6234 2600
v 417 -9725 2795
v 417 -5975 2600
v 417 -5975 19
v 417 -9725 19
v 1431 -9725 3100
v 1431 -9725 2600
v 1431 -9725 2795
v 1431 -9725 19
v 1431 -6234 2600
v 1431 -5975 19
v 1431 -5975 2600
vn 0 0 1
vn -1 0 0
vn 0 -1 0
vn 1 0 0
vn 0 1 0
vn 0 0 -1
f 1//1 2//1 3//1
f 3//1 4//1 5//1
f 4//1 3//1 2//1
f 6//2 7//2 8//2
f 7//2 6//2 2//2
f 6//2 4//2 2//2
f 9//2 10//2 7//2
f 7//2 11//2 8//2
f 11//2 7//2 10//2
f 4//3 6//3 12//3
f 12//3 5//3 4//3
f 6//3 8//3 12//3
f 8//3 11//3 13//3
f 8//3 13//3 14//3
f 13//3 11//3 15//3
f 8//3 14//3 12//3
f 5//4 12//4 3//4
f 16//4 1//4 3//4
f 12//4 16//4 3//4
f 14//4 16//4 12//4
f 13//4 15//4 16//4
f 16//4 17//4 18//4
f 17//4 16//4 15//4
f 13//4 16//4 14//4
f 9//5 18//5 10//5
f 17//5 10//5 18//5
f 16//5 7//5 2//5
f 2//5 1//5 16//5
f 17//6 15//6 11//6
f 11//6 10//6 17//6
f 18//1 9//1 7//1
f 7//1 16//1 18//1
