v 6088 -12600 2600
v 417 -12600 2600
v 6200 -13800 2600
v 417 -17383 2600
v 6200 -17383 2600
v 6200 -12600 2600
v 417 -17383 19
v 6200 -17383 19
v 6200 -13800 19
v 6200 -12600 19
v 6088 -12600 19
v 417 -12600 19
vn 0 0 1
vn 0 -1 0
vn 1 0 0
vn 0 1 0
vn -1 0 0
vn 0 0 -1
f 1//1 2//1 3//1
f 3//1 2//1 4//1
f 5//1 3//1 4//1
f 3//1 6//1 1//1
f 5//2 4//2 7//2
f 7//2 8//2 5//2
f 3//3 5//3 9//3
f 8//3 9//3 5//3
f 6//3 3//3 9//3
f 9//3 10//3 6//3
f 1//4 6//4 10//4
f 10//4 11//4 1//4
f 2//4 1//4 12//4
f 11//4 12//4 1//4
f 4//5 2//5 7//5
f 12//5 7//5 2//5
f 9//6 12//6 11//6
f 9//6 11//6 10//6
f 8//6 7//6 9//6
f 12//6 9//6 7//6
