v 7369 -11566 5700
v 8383 -11566 5700
v 7369 -11550 5700
v 8383 -8075 5700
v 7369 -8075 5700
v 8383 -8075 3100
v 8383 -11566 2600
v 8383 -8075 2795
v 8383 -11825 2600
v 8383 -11825 19
v 8383 -8075 19
v 7369 -8075 3100
v 7369 -8075 2795
v 7369 -8075 19
v 7369 -11566 2600
v 7369 -11825 19
v 7369 -11825 2600
vn 0 0 1
vn 1 0 0
vn 0 1 0
vn -1 0 0
vn 0 -1 0
vn 0 0 -1
f 1//1 2//1 3//1
f 3//1 4//1 5//1
f 4//1 3//1 2//1
f 6//2 7//2 8//2
f 7//2 6//2 2//2
f 6//2 4//2 2//2
f 9//2 10//2 7//2
f 7//2 11//2 8//2
f 11//2 7//2 10//2
f 4//3 6//3 12//3
f 12//3 5//3 4//3
f 6//3 8//3 12//3
f 8//3 11//3 13//3
f 14//3 13//3 11//3
f 8//3 13//3 12//3
f 5//4 12//4 3//4
f 15//4 1//4 3//4
f 3//4 12//4 15//4
f 13//4 14//4 15//4
f 15//4 16//4 17//4
f 16//4 15//4 14//4
f 15//4 12//4 13//4
f 9//5 17//5 10//5
f 16//5 10//5 17//5
f 15//5 7//5 2//5
f 2//5 1//5 15//5
f 16//6 14//6 11//6
f 11//6 10//6 16//6
f 7//1 15//1 17//1
f 17//1 9//1 7//1
