v 4694 -10370 2600
v 417 -10370 2600
v 417 -12600 2600
v 6226 -10370 2600
v 6226 -10995 2600
v 6226 -12600 2600
v 417 -10370 13
v 417 -12600 13
v 6226 -12600 13
v 6226 -10995 13
v 6226 -10370 13
v 4694 -10370 13
vn 0 0 1
vn -1 0 0
vn 0 -1 0
vn 1 0 0
vn 0 1 0
vn 0 0 -1
f 1//1 2//1 3//1
f 4//1 1//1 5//1
f 1//1 6//1 5//1
f 6//1 1//1 3//1
f 3//2 2//2 7//2
f 7//2 8//2 3//2
f 6//3 3//3 8//3
f 8//3 9//3 6//3
f 5//4 6//4 10//4
f 9//4 10//4 6//4
f 4//4 5//4 11//4
f 10//4 11//4 5//4
f 1//5 4//5 12//5
f 11//5 12//5 4//5
f 2//5 1//5 12//5
f 12//5 7//5 2//5
f 12//6 11//6 10//6
f 12//6 10//6 9//6
f 8//6 7//6 12//6
f 9//6 8//6 12//6
