v 6894 -7676 6000
v 7924 -7676 6000
v 7924 -6594 6000
v 6894 -6594 6000
v 8383 -6250 5700
v 8383 -8075 5700
v 8383 -8075 3119
v 8383 -6250 3119
v 6418 -6250 5700
v 7342 -6250 3119
v 6478 -6250 3119
v 6418 -6250 3119
v 6418 -6728 5700
v 6418 -6728 3119
v 6418 -7783 5700
v 6418 -7783 3119
v 6418 -11042 5700
v 6418 -8809 3119
v 6418 -7945 3119
v 6418 -11042 3119
v 6418 -11550 5700
v 6418 -11550 3119
v 7369 -11550 5700
v 7321 -11550 3119
v 6457 -11550 3119
v 7369 -11550 3119
v 7369 -8075 5700
v 7369 -8075 3119
v 6894 -6594 5700
v 6894 -7676 5700
v 7924 -6594 5700
v 7924 -7676 5700
vn 0 0 1
vn 1 0 0
vn 0 1 0
vn -1 0 0
vn 0 -1 0
vn 0 0 -1
f 1//1 2//1 3//1
f 3//1 4//1 1//1
f 5//2 6//2 7//2
f 7//2 8//2 5//2
f 9//3 5//3 10//3
f 10//3 5//3 8//3
f 9//3 10//3 11//3
f 11//3 12//3 9//3
f 13//4 9//4 12//4
f 12//4 14//4 13//4
f 15//4 13//4 16//4
f 14//4 16//4 13//4
f 17//4 15//4 18//4
f 18//4 15//4 19//4
f 17//4 18//4 20//4
f 16//4 19//4 15//4
f 21//4 17//4 22//4
f 20//4 22//4 17//4
f 23//5 21//5 24//5
f 24//5 21//5 25//5
f 23//5 24//5 26//5
f 22//5 25//5 21//5
f 27//2 23//2 26//2
f 26//2 28//2 27//2
f 6//5 27//5 7//5
f 28//5 7//5 27//5
f 18//6 26//6 20//6
f 22//6 20//6 25//6
f 14//6 12//6 11//6
f 28//6 16//6 14//6
f 28//6 19//6 16//6
f 28//6 18//6 19//6
f 24//6 20//6 26//6
f 18//6 28//6 26//6
f 28//6 14//6 10//6
f 11//6 10//6 14//6
f 28//6 10//6 8//6
f 28//6 8//6 7//6
f 24//6 25//6 20//6
f 13//1 29//1 9//1
f 5//1 9//1 29//1
f 30//1 13//1 15//1
f 15//1 17//1 27//1
f 17//1 21//1 23//1
f 13//1 30//1 29//1
f 5//1 31//1 32//1
f 29//1 31//1 5//1
f 6//1 5//1 32//1
f 30//1 15//1 27//1
f 23//1 27//1 17//1
f 32//1 30//1 27//1
f 27//1 6//1 32//1
f 3//3 29//3 4//3
f 29//3 3//3 31//3
f 2//2 31//2 3//2
f 31//2 2//2 32//2
f 30//5 32//5 2//5
f 2//5 1//5 30//5
f 4//4 30//4 1//4
f 30//4 4//4 29//4
