v 2476 -4000 2600
v 2476 -417 2600
v 417 -417 2600
v 2600 -4000 2600
v 2574 -5200 2600
v 1431 -5975 2600
v 2574 -5338 2600
v 2600 -5200 2600
v 2450 -6805 2600
v 2574 -6805 2600
v 417 -5975 2600
v 2450 -9725 2600
v 2450 -7492 2600
v 1431 -9725 2600
v 2476 -417 19
v 417 -417 19
v 417 -5975 19
v 1431 -5975 19
v 1431 -9725 19
v 2450 -9725 19
v 2450 -8513 19
v 2450 -7749 19
v 2450 -7492 19
v 2450 -6805 19
v 2574 -6805 19
v 2574 -5338 19
v 2574 -5200 19
v 2600 -5200 19
v 2600 -4000 19
v 2476 -4000 19
vn 0 0 1
vn 0 1 0
vn -1 0 0
vn 0 -1 0
vn 1 0 0
vn 0 0 -1
f 1//1 2//1 3//1
f 4//1 1//1 5//1
f 6//1 7//1 5//1
f 8//1 4//1 5//1
f 9//1 10//1 7//1
f 6//1 5//1 1//1
f 1//1 11//1 6//1
f 6//1 9//1 7//1
f 12//1 13//1 14//1
f 6//1 13//1 9//1
f 6//1 14//1 13//1
f 1//1 3//1 11//1
f 3//2 2//2 15//2
f 15//2 16//2 3//2
f 11//3 3//3 16//3
f 16//3 17//3 11//3
f 6//4 11//4 17//4
f 17//4 18//4 6//4
f 14//3 6//3 18//3
f 18//3 19//3 14//3
f 12//4 14//4 20//4
f 19//4 20//4 14//4
f 13//5 12//5 21//5
f 21//5 12//5 20//5
f 13//5 21//5 22//5
f 22//5 23//5 13//5
f 9//5 13//5 23//5
f 23//5 24//5 9//5
f 10//4 9//4 25//4
f 24//4 25//4 9//4
f 7//5 10//5 25//5
f 25//5 26//5 7//5
f 5//5 7//5 26//5
f 26//5 27//5 5//5
f 8//4 5//4 27//4
f 27//4 28//4 8//4
f 4//5 8//5 28//5
f 28//5 29//5 4//5
f 1//2 4//2 30//2
f 29//2 30//2 4//2
f 2//5 1//5 15//5
f 30//5 15//5 1//5
f 21//6 20//6 19//6
f 22//6 21//6 19//6
f 23//6 22//6 18//6
f 22//6 19//6 18//6
f 23//6 18//6 24//6
f 26//6 25//6 24//6
f 30//6 29//6 27//6
f 28//6 27//6 29//6
f 18//6 27//6 26//6
f 17//6 16//6 30//6
f 27//6 18//6 30//6
f 30//6 16//6 15//6
f 18//6 17//6 30//6
f 24//6 18//6 26//6
