v 6294 -11674 5700
v 6294 -11134 5700
v 4694 -11134 5700
v 8383 -11674 5700
v 7369 -11674 5700
v 8383 -17383 5700
v 4675 -11134 5700
v 4675 -17383 5700
v 6457 -11674 5700
v 7321 -11674 5700
v 4675 -11134 3119
v 4675 -17383 3119
v 8383 -17383 3119
v 8383 -11674 3119
v 7369 -11674 3119
v 6294 -11674 3119
v 7321 -11674 3119
v 6457 -11674 3119
v 6294 -11134 3119
v 4694 -11134 3119
vn 0 0 1
vn -1 0 0
vn 0 -1 0
vn 1 0 0
vn 0 1 0
vn 0 0 -1
f 1//1 2//1 3//1
f 4//1 5//1 6//1
f 3//1 7//1 1//1
f 1//1 8//1 9//1
f 8//1 1//1 7//1
f 10//1 9//1 6//1
f 6//1 9//1 8//1
f 10//1 6//1 5//1
f 8//2 7//2 11//2
f 11//2 12//2 8//2
f 6//3 8//3 13//3
f 12//3 13//3 8//3
f 4//4 6//4 14//4
f 13//4 14//4 6//4
f 5//5 4//5 14//5
f 14//5 15//5 5//5
f 10//5 5//5 15//5
f 1//5 9//5 16//5
f 10//5 17//5 9//5
f 15//5 17//5 10//5
f 18//5 16//5 9//5
f 17//5 18//5 9//5
f 2//4 1//4 19//4
f 16//4 19//4 1//4
f 3//5 2//5 19//5
f 19//5 20//5 3//5
f 7//5 3//5 20//5
f 20//5 11//5 7//5
f 18//6 17//6 13//6
f 15//6 13//6 17//6
f 16//6 18//6 12//6
f 13//6 12//6 18//6
f 11//6 16//6 12//6
f 13//6 15//6 14//6
f 20//6 16//6 11//6
f 19//6 16//6 20//6
