v 8383 -17383 2600
v 6324 -13800 2600
v 6324 -17383 2600
v 6226 -12600 2600
v 7369 -11825 2600
v 6200 -13800 2600
v 6200 -12600 2600
v 6226 -12462 2600
v 8383 -11825 2600
v 7369 -8075 2600
v 6350 -10308 2600
v 6226 -10995 2600
v 6350 -10995 2600
v 6350 -8075 2600
v 8383 -11825 19
v 8383 -17383 19
v 7369 -11825 19
v 7369 -8075 19
v 6350 -8075 19
v 6350 -9291 19
v 6350 -10053 19
v 6350 -10308 19
v 6350 -10995 19
v 6226 -10995 19
v 6226 -12462 19
v 6226 -12600 19
v 6200 -12600 19
v 6200 -13800 19
v 6324 -13800 19
v 6324 -17383 19
vn 0 0 1
vn 1 0 0
vn 0 1 0
vn -1 0 0
vn 0 -1 0
vn 0 0 -1
f 1//1 2//1 3//1
f 4//1 2//1 5//1
f 6//1 4//1 7//1
f 4//1 6//1 2//1
f 8//1 4//1 5//1
f 9//1 2//1 1//1
f 9//1 5//1 2//1
f 5//1 10//1 11//1
f 12//1 8//1 13//1
f 11//1 13//1 5//1
f 10//1 14//1 11//1
f 13//1 8//1 5//1
f 9//2 1//2 15//2
f 16//2 15//2 1//2
f 5//3 9//3 15//3
f 15//3 17//3 5//3
f 10//2 5//2 17//2
f 17//2 18//2 10//2
f 14//3 10//3 18//3
f 18//3 19//3 14//3
f 11//4 14//4 20//4
f 20//4 14//4 19//4
f 11//4 20//4 21//4
f 21//4 22//4 11//4
f 13//4 11//4 22//4
f 22//4 23//4 13//4
f 12//3 13//3 24//3
f 23//3 24//3 13//3
f 8//4 12//4 24//4
f 24//4 25//4 8//4
f 4//4 8//4 25//4
f 25//4 26//4 4//4
f 7//3 4//3 27//3
f 26//3 27//3 4//3
f 6//4 7//4 27//4
f 27//4 28//4 6//4
f 2//5 6//5 29//5
f 28//5 29//5 6//5
f 3//4 2//4 30//4
f 29//4 30//4 2//4
f 1//5 3//5 30//5
f 30//5 16//5 1//5
f 20//6 19//6 18//6
f 21//6 20//6 18//6
f 22//6 21//6 17//6
f 21//6 18//6 17//6
f 22//6 17//6 23//6
f 25//6 24//6 23//6
f 29//6 28//6 26//6
f 27//6 26//6 28//6
f 17//6 26//6 25//6
f 15//6 16//6 29//6
f 26//6 17//6 29//6
f 29//6 16//6 30//6
f 17//6 15//6 29//6
f 23//6 17//6 25//6
