v 2712 -5200 2600
v 8383 -5200 2600
v 2600 -4000 2600
v 8383 -417 2600
v 2600 -417 2600
v 2600 -5200 2600
v 8383 -417 19
v 2600 -417 19
v 2600 -4000 19
v 2600 -5200 19
v 2712 -5200 19
v 8383 -5200 19
vn 0 0 1
vn 0 1 0
vn -1 0 0
vn 0 -1 0
vn 1 0 0
vn 0 0 -1
f 1//1 2//1 3//1
f 3//1 2//1 4//1
f 5//1 3//1 4//1
f 3//1 6//1 1//1
f 5//2 4//2 7//2
f 7//2 8//2 5//2
f 3//3 5//3 8//3
f 8//3 9//3 3//3
f 6//3 3//3 9//3
f 9//3 10//3 6//3
f 1//4 6//4 11//4
f 10//4 11//4 6//4
f 2//4 1//4 11//4
f 11//4 12//4 2//4
f 4//5 2//5 12//5
f 12//5 7//5 4//5
f 9//6 12//6 11//6
f 9//6 11//6 10//6
f 8//6 7//6 9//6
f 12//6 9//6 7//6
