v 1891 -10124 6000
v 861 -10124 6000
v 1891 -11206 6000
v 861 -11206 6000
v 417 -11550 5700
v 417 -9725 5700
v 417 -9725 3119
v 417 -11550 3119
v 2382 -11550 5700
v 1418 -11550 3119
v 2282 -11550 3119
v 2382 -11550 3119
v 2382 -11072 5700
v 2382 -11072 3119
v 2382 -10032 5700
v 2382 -10032 3119
v 2382 -6758 5700
v 2382 -9006 3119
v 2382 -9870 3119
v 2382 -6758 3119
v 2382 -6250 5700
v 2382 -6250 3119
v 1431 -6250 5700
v 1483 -6250 3119
v 2347 -6250 3119
v 1431 -6250 3119
v 1431 -9725 5700
v 1431 -9725 3119
v 1891 -11206 5700
v 1891 -10124 5700
v 861 -11206 5700
v 861 -10124 5700
vn 0 0 1
vn -1 0 0
vn 0 -1 0
vn 1 0 0
vn 0 1 0
vn 0 0 -1
f 1//1 2//1 3//1
f 4//1 3//1 2//1
f 5//2 6//2 7//2
f 7//2 8//2 5//2
f 9//3 5//3 10//3
f 10//3 5//3 8//3
f 9//3 10//3 11//3
f 11//3 12//3 9//3
f 13//4 9//4 12//4
f 12//4 14//4 13//4
f 15//4 13//4 14//4
f 14//4 16//4 15//4
f 17//4 15//4 18//4
f 18//4 15//4 19//4
f 17//4 18//4 20//4
f 16//4 19//4 15//4
f 21//4 17//4 20//4
f 20//4 22//4 21//4
f 23//5 21//5 24//5
f 24//5 21//5 25//5
f 23//5 24//5 26//5
f 22//5 25//5 21//5
f 27//2 23//2 28//2
f 26//2 28//2 23//2
f 6//5 27//5 28//5
f 28//5 7//5 6//5
f 18//6 26//6 20//6
f 22//6 20//6 25//6
f 14//6 12//6 11//6
f 28//6 16//6 14//6
f 28//6 19//6 16//6
f 28//6 18//6 19//6
f 24//6 20//6 26//6
f 18//6 28//6 26//6
f 28//6 14//6 10//6
f 11//6 10//6 14//6
f 10//6 8//6 7//6
f 10//6 7//6 28//6
f 24//6 25//6 20//6
f 13//1 29//1 9//1
f 5//1 9//1 29//1
f 30//1 13//1 15//1
f 15//1 17//1 27//1
f 17//1 21//1 23//1
f 13//1 30//1 29//1
f 5//1 31//1 32//1
f 29//1 31//1 5//1
f 6//1 5//1 32//1
f 30//1 15//1 27//1
f 23//1 27//1 17//1
f 32//1 30//1 27//1
f 27//1 6//1 32//1
f 1//5 32//5 2//5
f 32//5 1//5 30//5
f 3//4 30//4 1//4
f 30//4 3//4 29//4
f 31//3 29//3 3//3
f 3//3 4//3 31//3
f 32//2 31//2 4//2
f 4//2 2//2 32//2
