v 4125 -417 3200
v 4125 -417 3100
v 4125 -6666 3100
v 4125 -417 5610
v 4125 -6850 5695
v 4125 -6666 6000
v 4125 -417 6000
v 4125 -6850 6000
v 4125 -6850 3100
v 4125 -11010 5695
v 4125 -11010 3100
v 4125 -11134 3100
v 4125 -17383 3100
v 4125 -11010 6000
v 4125 -11134 6000
v 4125 -17383 6000
v 4675 -17383 3200
v 4675 -17383 3100
v 4675 -11134 3100
v 4675 -17383 5610
v 4675 -10950 5695
v 4675 -11134 6000
v 4675 -17383 6000
v 4675 -10950 6000
v 4675 -10950 3100
v 4675 -6790 5695
v 4675 -6790 3100
v 4675 -6666 3100
v 4675 -417 3100
v 4675 -6790 6000
v 4675 -6666 6000
v 4675 -417 6000
v 4182 -6850 3100
v 4618 -6790 3100
v 4182 -11010 3100
v 4618 -10950 3100
v 4618 -6790 5695
v 4618 -10950 5695
v 4182 -11010 5695
v 4182 -6850 5695
vn -1 0 0
vn 1 0 0
vn 0 0 -1
vn 0 0 1
vn 0 1 0
vn 0 -1 0
f 1//1 2//1 3//1
f 1//1 3//1 4//1
f 3//1 5//1 6//1
f 7//1 4//1 6//1
f 6//1 4//1 3//1
f 6//1 5//1 8//1
f 3//1 9//1 5//1
f 10//1 11//1 12//1
f 10//1 12//1 13//1
f 10//1 14//1 5//1
f 14//1 10//1 15//1
f 16//1 15//1 10//1
f 10//1 13//1 16//1
f 5//1 14//1 8//1
f 17//2 18//2 19//2
f 17//2 19//2 20//2
f 19//2 21//2 22//2
f 23//2 20//2 22//2
f 22//2 20//2 19//2
f 22//2 21//2 24//2
f 19//2 25//2 21//2
f 26//2 27//2 28//2
f 26//2 28//2 29//2
f 26//2 30//2 21//2
f 30//2 26//2 31//2
f 32//2 31//2 26//2
f 26//2 29//2 32//2
f 21//2 30//2 24//2
f 33//3 3//3 34//3
f 33//3 9//3 3//3
f 3//3 2//3 28//3
f 19//3 13//3 12//3
f 11//3 35//3 12//3
f 19//3 12//3 35//3
f 35//3 33//3 36//3
f 27//3 34//3 28//3
f 28//3 34//3 3//3
f 2//3 29//3 28//3
f 36//3 25//3 19//3
f 33//3 34//3 36//3
f 18//3 13//3 19//3
f 19//3 35//3 36//3
f 15//4 22//4 14//4
f 22//4 15//4 16//4
f 31//4 7//4 6//4
f 30//4 6//4 8//4
f 14//4 24//4 8//4
f 14//4 22//4 24//4
f 22//4 16//4 23//4
f 31//4 32//4 7//4
f 31//4 6//4 30//4
f 24//4 30//4 8//4
f 29//5 2//5 1//5
f 32//5 29//5 4//5
f 1//5 4//5 29//5
f 7//5 32//5 4//5
f 13//6 18//6 17//6
f 16//6 13//6 20//6
f 17//6 20//6 13//6
f 23//6 16//6 20//6
f 36//2 34//2 37//2
f 37//2 38//2 36//2
f 37//3 26//3 21//3
f 21//3 38//3 37//3
f 34//6 27//6 26//6
f 26//6 37//6 34//6
f 38//5 21//5 25//5
f 25//5 36//5 38//5
f 33//1 35//1 39//1
f 39//1 40//1 33//1
f 39//3 10//3 5//3
f 5//3 40//3 39//3
f 40//6 5//6 9//6
f 9//6 33//6 40//6
f 35//5 11//5 10//5
f 10//5 39//5 35//5
