v 8383 -417 -1250
v 8383 -7582 -1250
v 8383 -7582 0
v 8383 -417 0
v 8383 -8018 0
v 8383 -8018 -1250
v 8383 -17383 -1250
v 8383 -17800 -1250
v 8383 -17383 0
v 8383 -17800 0
v 8800 -417 0
v 8800 -17800 0
v 8800 -17800 -1250
v 8800 -417 -1250
vn -1 0 0
vn 1 0 0
vn 0 0 -1
vn 0 0 1
vn 0 1 0
vn 0 -1 0
f 1//1 2//1 3//1
f 1//1 3//1 4//1
f 3//1 2//1 5//1
f 2//1 6//1 5//1
f 7//1 8//1 9//1
f 7//1 9//1 6//1
f 9//1 8//1 10//1
f 6//1 9//1 5//1
f 11//2 12//2 13//2
f 13//2 14//2 11//2
f 8//3 7//3 13//3
f 2//3 14//3 6//3
f 14//3 2//3 1//3
f 6//3 13//3 7//3
f 13//3 6//3 14//3
f 9//4 10//4 12//4
f 5//4 12//4 11//4
f 12//4 5//4 9//4
f 3//4 11//4 4//4
f 11//4 3//4 5//4
f 4//5 11//5 14//5
f 14//5 1//5 4//5
f 8//6 13//6 12//6
f 12//6 10//6 8//6
