v 4125 -11010 5695
v 4125 -11010 3100
v 4030 -11010 3100
v 4125 -11010 6000
v 2506 -11010 6000
v 2506 -11010 3100
v 4125 -11134 6000
v 2506 -11134 6000
v 2506 -11134 3100
v 4125 -11134 3100
vn 0 1 0
vn 0 -1 0
vn 0 0 -1
vn 0 0 1
vn 1 0 0
vn -1 0 0
f 1//1 2//1 3//1
f 4//1 1//1 5//1
f 6//1 5//1 1//1
f 6//1 1//1 3//1
f 7//2 8//2 9//2
f 9//2 10//2 7//2
f 3//3 10//3 9//3
f 10//3 3//3 2//3
f 3//3 9//3 6//3
f 5//4 8//4 7//4
f 7//4 4//4 5//4
f 7//5 10//5 1//5
f 2//5 1//5 10//5
f 4//5 7//5 1//5
f 6//6 9//6 8//6
f 8//6 5//6 6//6
