v 8383 -7430 2795
v 8383 -7430 0
v 4675 -7430 2795
v 4030 -7430 0
v 4030 -7430 2795
v 4030 -7582 2795
v 4030 -7582 0
v 4182 -7582 2795
v 4182 -7582 0
v 8383 -7582 0
v 4675 -7582 2795
v 8383 -7582 2795
v 4030 -7554 0
v 4030 -7554 2795
vn 0 1 0
vn 0 -1 0
vn 0 0 -1
vn 1 0 0
vn -1 0 0
vn 0 0 1
f 1//1 2//1 3//1
f 3//1 4//1 5//1
f 4//1 3//1 2//1
f 6//2 7//2 8//2
f 8//2 7//2 9//2
f 9//2 10//2 11//2
f 12//2 11//2 10//2
f 9//2 11//2 8//2
f 13//3 4//3 9//3
f 9//3 4//3 2//3
f 10//3 9//3 2//3
f 9//3 7//3 13//3
f 1//4 12//4 10//4
f 10//4 2//4 1//4
f 5//5 4//5 13//5
f 5//5 13//5 14//5
f 13//5 6//5 14//5
f 6//5 13//5 7//5
f 8//6 3//6 5//6
f 8//6 5//6 14//6
f 6//6 8//6 14//6
f 8//6 11//6 3//6
f 3//6 11//6 12//6
f 12//6 1//6 3//6
