v 417 -417 3100
v 0 -417 0
v 417 -417 0
v 2476 -417 0
v 2635 -417 2420
v 2600 -417 0
v 0 -417 3100
v 3448 -417 2420
v 3448 -417 0
v 3548 -417 100
v 2635 -417 0
v 3548 -417 2520
v 8383 -417 100
v 8383 -417 0
v 8800 -417 0
v 8383 -417 2520
v 8800 -417 3100
v 8383 -417 3100
v 8383 0 100
v 3448 0 0
v 3548 0 100
v 8800 0 0
v 8383 0 2520
v 8800 0 3100
v 3548 0 2520
v 0 0 3100
v 3448 0 2420
v 2635 0 2420
v 2635 0 0
v 0 0 0
vn 0 -1 0
vn 0 1 0
vn 0 0 -1
vn 0 0 1
vn 1 0 0
vn -1 0 0
f 1//1 2//1 3//1
f 3//1 4//1 5//1
f 6//1 5//1 4//1
f 7//1 2//1 1//1
f 8//1 9//1 10//1
f 5//1 1//1 3//1
f 11//1 5//1 6//1
f 1//1 5//1 12//1
f 13//1 10//1 14//1
f 14//1 15//1 13//1
f 10//1 9//1 14//1
f 13//1 15//1 16//1
f 8//1 12//1 5//1
f 8//1 10//1 12//1
f 16//1 17//1 18//1
f 17//1 16//1 15//1
f 16//1 18//1 12//1
f 12//1 18//1 1//1
f 19//2 20//2 21//2
f 20//2 19//2 22//2
f 22//2 19//2 23//2
f 24//2 23//2 25//2
f 23//2 24//2 22//2
f 24//2 25//2 26//2
f 21//2 27//2 25//2
f 28//2 29//2 30//2
f 28//2 26//2 25//2
f 21//2 20//2 27//2
f 26//2 28//2 30//2
f 28//2 25//2 27//2
f 15//3 14//3 22//3
f 20//3 22//3 14//3
f 20//3 14//3 9//3
f 3//3 29//3 4//3
f 30//3 3//3 2//3
f 4//3 29//3 6//3
f 29//3 3//3 30//3
f 29//3 11//3 6//3
f 7//4 1//4 26//4
f 18//4 24//4 26//4
f 24//4 18//4 17//4
f 18//4 26//4 1//4
f 17//5 15//5 22//5
f 22//5 24//5 17//5
f 7//6 26//6 30//6
f 30//6 2//6 7//6
f 21//5 25//5 12//5
f 12//5 10//5 21//5
f 23//6 19//6 13//6
f 13//6 16//6 23//6
f 10//4 13//4 19//4
f 19//4 21//4 10//4
f 16//3 12//3 25//3
f 25//3 23//3 16//3
f 11//5 29//5 28//5
f 28//5 5//5 11//5
f 5//3 28//3 27//3
f 27//3 8//3 5//3
f 8//6 27//6 20//6
f 20//6 9//6 8//6
