v 4182 -9725 2795
v 4182 -9725 0
v 4182 -8075 0
v 4182 -9725 3100
v 4182 -7582 2795
v 4182 -7582 0
v 4182 -7582 3100
v 4030 -7582 2795
v 4030 -9725 0
v 4030 -9725 3100
v 4030 -7582 0
v 4030 -7582 3100
vn 1 0 0
vn -1 0 0
vn 0 0 -1
vn 0 0 1
vn 0 1 0
vn 0 -1 0
f 1//1 2//1 3//1
f 4//1 1//1 5//1
f 3//1 6//1 5//1
f 7//1 4//1 5//1
f 5//1 1//1 3//1
f 8//2 9//2 10//2
f 9//2 8//2 11//2
f 8//2 10//2 12//2
f 3//3 9//3 11//3
f 9//3 3//3 2//3
f 3//3 11//3 6//3
f 7//4 12//4 10//4
f 10//4 4//4 7//4
f 6//5 11//5 8//5
f 5//5 8//5 12//5
f 8//5 5//5 6//5
f 12//5 7//5 5//5
f 10//6 9//6 1//6
f 2//6 1//6 9//6
f 4//6 10//6 1//6
