v 8383 -17383 6609
v 8383 -17383 6000
v 417 -17383 6000
v 417 -17383 6609
v 0 -17383 6000
v 0 -17383 6609
v 8383 -17800 6609
v 0 -17800 6609
v 0 -17800 6000
v 8383 -17800 6000
vn 0 1 0
vn 0 -1 0
vn 0 0 -1
vn 0 0 1
vn 1 0 0
vn -1 0 0
f 1//1 2//1 3//1
f 1//1 3//1 4//1
f 4//1 5//1 6//1
f 5//1 4//1 3//1
f 7//2 8//2 9//2
f 9//2 10//2 7//2
f 3//3 10//3 9//3
f 10//3 3//3 2//3
f 3//3 9//3 5//3
f 4//4 8//4 7//4
f 8//4 4//4 6//4
f 4//4 7//4 1//4
f 1//5 7//5 10//5
f 10//5 2//5 1//5
f 5//6 9//6 8//6
f 8//6 6//6 5//6
