v 2450 -6805 0
v 2450 -7749 0
v 2450 -7749 2032
v 2450 -6805 2795
v 2450 -8511 2032
v 2450 -8511 0
v 2450 -9725 0
v 2450 -9725 2795
v 2574 -9725 0
v 2574 -8511 0
v 2574 -8511 2032
v 2574 -7554 2795
v 2574 -9725 2795
v 2574 -7749 2032
v 2574 -7749 0
v 2574 -7554 0
v 2574 -6805 2795
v 2574 -6805 0
v 2574 -7430 0
v 2574 -7430 2795
vn -1 0 0
vn 1 0 0
vn 0 0 -1
vn 0 0 1
vn 0 1 0
vn 0 -1 0
f 1//1 2//1 3//1
f 4//1 3//1 5//1
f 3//1 4//1 1//1
f 6//1 7//1 5//1
f 5//1 8//1 4//1
f 8//1 5//1 7//1
f 9//2 10//2 11//2
f 12//2 13//2 11//2
f 11//2 13//2 9//2
f 12//2 11//2 14//2
f 15//2 16//2 14//2
f 17//2 14//2 18//2
f 18//2 14//2 19//2
f 12//2 14//2 20//2
f 20//2 14//2 17//2
f 14//2 16//2 19//2
f 7//3 6//3 9//3
f 10//3 9//3 6//3
f 2//3 16//3 15//3
f 19//3 2//3 1//3
f 2//3 19//3 16//3
f 19//3 1//3 18//3
f 4//4 8//4 12//4
f 12//4 8//4 13//4
f 4//4 12//4 20//4
f 20//4 17//4 4//4
f 4//5 17//5 18//5
f 18//5 1//5 4//5
f 7//6 9//6 13//6
f 13//6 8//6 7//6
f 2//6 15//6 14//6
f 14//6 3//6 2//6
f 3//3 14//3 11//3
f 11//3 5//3 3//3
f 5//5 11//5 10//5
f 10//5 6//5 5//5
