v 2382 -6250 3100
v 2382 -9006 3100
v 2382 -9006 5132
v 2382 -11550 6000
v 2382 -6250 6000
v 2382 -9870 5132
v 2382 -11550 3100
v 2382 -11674 3100
v 2382 -11674 6000
v 2382 -9870 3100
v 2506 -11134 6000
v 2506 -11674 3100
v 2506 -11134 3100
v 2506 -9870 5132
v 2506 -11010 3100
v 2506 -10094 3100
v 2506 -11674 6000
v 2506 -11010 6000
v 2506 -10094 6000
v 2506 -9970 6000
v 2506 -9970 3100
v 2506 -6850 6000
v 2506 -6850 3100
v 2506 -6666 3100
v 2506 -9006 3100
v 2506 -9006 5132
v 2506 -6250 3100
v 2506 -6666 6000
v 2506 -6250 6000
v 2506 -9870 3100
vn -1 0 0
vn 1 0 0
vn 0 0 -1
vn 0 0 1
vn 0 1 0
vn 0 -1 0
f 1//1 2//1 3//1
f 4//1 5//1 3//1
f 3//1 5//1 1//1
f 4//1 3//1 6//1
f 7//1 8//1 4//1
f 4//1 6//1 7//1
f 4//1 8//1 9//1
f 7//1 6//1 10//1
f 11//2 12//2 13//2
f 14//2 13//2 15//2
f 11//2 13//2 14//2
f 15//2 16//2 14//2
f 17//2 12//2 11//2
f 11//2 14//2 18//2
f 14//2 19//2 18//2
f 19//2 14//2 20//2
f 16//2 21//2 14//2
f 22//2 23//2 24//2
f 25//2 23//2 26//2
f 27//2 28//2 24//2
f 26//2 22//2 20//2
f 23//2 22//2 26//2
f 24//2 28//2 22//2
f 27//2 29//2 28//2
f 26//2 20//2 14//2
f 30//2 14//2 21//2
f 2//3 23//3 25//3
f 23//3 2//3 1//3
f 1//3 24//3 23//3
f 24//3 1//3 27//3
f 7//3 10//3 15//3
f 12//3 8//3 7//3
f 21//3 10//3 30//3
f 16//3 15//3 10//3
f 12//3 7//3 13//3
f 7//3 15//3 13//3
f 21//3 16//3 10//3
f 19//4 4//4 18//4
f 4//4 20//4 5//4
f 20//4 4//4 19//4
f 5//4 20//4 22//4
f 4//4 9//4 17//4
f 4//4 11//4 18//4
f 11//4 4//4 17//4
f 28//4 29//4 5//4
f 28//4 5//4 22//4
f 5//5 29//5 27//5
f 27//5 1//5 5//5
f 8//6 12//6 17//6
f 17//6 9//6 8//6
f 30//5 10//5 6//5
f 6//5 14//5 30//5
f 14//3 6//3 3//3
f 3//3 26//3 14//3
f 26//6 3//6 2//6
f 2//6 25//6 26//6
