v 6418 -6250 3100
v 6478 -6250 3100
v 6478 -6250 5132
v 6418 -6250 6000
v 7342 -6250 5132
v 7342 -6250 3100
v 8383 -6250 3100
v 8383 -6250 6000
v 8383 -6126 3100
v 7342 -6126 3100
v 7342 -6126 5132
v 8383 -6126 6000
v 6418 -6126 6000
v 6478 -6126 3100
v 6418 -6126 3100
v 6478 -6126 5132
vn 0 -1 0
vn 0 1 0
vn 0 0 -1
vn 0 0 1
vn -1 0 0
vn 1 0 0
f 1//1 2//1 3//1
f 4//1 3//1 5//1
f 3//1 4//1 1//1
f 6//1 7//1 5//1
f 5//1 8//1 4//1
f 8//1 5//1 7//1
f 9//2 10//2 11//2
f 12//2 11//2 13//2
f 11//2 12//2 9//2
f 14//2 15//2 16//2
f 16//2 13//2 11//2
f 13//2 16//2 15//2
f 7//3 6//3 10//3
f 10//3 9//3 7//3
f 2//3 1//3 15//3
f 15//3 14//3 2//3
f 8//4 12//4 13//4
f 13//4 4//4 8//4
f 4//5 13//5 15//5
f 15//5 1//5 4//5
f 7//6 9//6 12//6
f 12//6 8//6 7//6
f 2//6 14//6 16//6
f 16//6 3//6 2//6
f 3//3 16//3 11//3
f 11//3 5//3 3//3
f 5//5 11//5 10//5
f 10//5 6//5 5//5
