v 4618 -9725 0
v 4182 -9725 0
v 4182 -9725 2795
v 4618 -9725 2795
v 4030 -9725 0
v 2574 -9725 2795
v 2450 -9725 0
v 417 -9725 0
v 417 -9725 2795
v 2574 -9725 0
v 2450 -9725 2795
v 417 -10218 0
v 4618 -10218 0
v 417 -10218 2795
v 4618 -10218 2795
vn 0 1 0
vn 0 0 -1
vn 0 0 1
vn -1 0 0
vn 0 -1 0
vn 1 0 0
f 1//1 2//1 3//1
f 1//1 3//1 4//1
f 3//1 2//1 5//1
f 3//1 5//1 6//1
f 7//1 8//1 9//1
f 10//1 7//1 11//1
f 11//1 6//1 10//1
f 9//1 11//1 7//1
f 10//1 6//1 5//1
f 12//2 7//2 10//2
f 7//2 12//2 8//2
f 13//2 10//2 5//2
f 10//2 13//2 12//2
f 1//2 13//2 2//2
f 2//2 13//2 5//2
f 14//3 15//3 6//3
f 6//3 15//3 3//3
f 14//3 6//3 11//3
f 11//3 9//3 14//3
f 3//3 15//3 4//3
f 8//4 12//4 14//4
f 14//4 9//4 8//4
f 13//5 15//5 14//5
f 14//5 12//5 13//5
f 4//6 15//6 13//6
f 13//6 1//6 4//6
