v 4182 -6850 3100
v 4182 -6850 5695
v 4182 -11010 5695
v 4182 -11010 3100
v 4030 -6850 5695
v 4030 -6850 3100
v 4030 -9970 3100
v 4030 -11010 5695
v 4030 -10094 3100
v 4030 -11010 3100
v 4125 -6850 3100
v 4125 -11010 3100
v 4125 -11010 5695
v 4125 -6850 5695
vn 1 0 0
vn -1 0 0
vn 0 0 -1
vn 0 0 1
vn 0 1 0
vn 0 -1 0
f 1//1 2//1 3//1
f 3//1 4//1 1//1
f 5//2 6//2 7//2
f 5//2 7//2 8//2
f 9//2 10//2 8//2
f 9//2 8//2 7//2
f 1//3 4//3 7//3
f 7//3 11//3 1//3
f 9//3 4//3 12//3
f 9//3 7//3 4//3
f 7//3 6//3 11//3
f 9//3 12//3 10//3
f 13//4 3//4 14//4
f 14//4 3//4 2//4
f 14//4 5//4 8//4
f 14//4 8//4 13//4
f 11//5 6//5 5//5
f 14//5 11//5 5//5
f 14//5 2//5 11//5
f 1//5 11//5 2//5
f 12//6 3//6 13//6
f 4//6 3//6 12//6
f 8//6 10//6 12//6
f 13//6 8//6 12//6
