v 0 -417 6000
v 417 -417 6000
v 417 -417 6609
v 0 -417 6609
v 8383 -417 6000
v 8800 -417 6000
v 8383 -417 6609
v 8800 -417 6609
v 8800 0 6609
v 8800 0 6000
v 0 0 6000
v 0 0 6609
vn 0 -1 0
vn 0 1 0
vn 0 0 -1
vn 0 0 1
vn 1 0 0
vn -1 0 0
f 1//1 2//1 3//1
f 3//1 4//1 1//1
f 2//1 5//1 3//1
f 5//1 6//1 7//1
f 8//1 7//1 6//1
f 5//1 7//1 3//1
f 9//2 10//2 11//2
f 11//2 12//2 9//2
f 6//3 5//3 10//3
f 2//3 11//3 10//3
f 11//3 2//3 1//3
f 2//3 10//3 5//3
f 4//4 3//4 12//4
f 7//4 9//4 12//4
f 9//4 7//4 8//4
f 7//4 12//4 3//4
f 8//5 6//5 10//5
f 10//5 9//5 8//5
f 4//6 12//6 11//6
f 11//6 1//6 4//6
