solid Exported from Blender-3.4.1
facet normal 0.187597 -0.577354 -0.794651
outer loop
vertex -1.528442 -1.854588 0.302604
vertex -0.804842 -2.380308 0.855389
vertex -1.804827 -2.705228 0.855389
endloop
endfacet
facet normal 0.607064 0.000000 -0.794653
outer loop
vertex -0.804842 -2.380308 0.855389
vertex -1.528442 -1.854588 0.302604
vertex -0.804842 -1.328868 0.855389
endloop
endfacet
facet normal -0.491122 -0.356829 -0.794652
outer loop
vertex -1.528442 -1.854588 0.302604
vertex -1.804827 -2.705228 0.855389
vertex -2.422867 -1.854588 0.855389
endloop
endfacet
facet normal -0.491122 0.356829 -0.794652
outer loop
vertex -1.528442 -1.854588 0.302604
vertex -2.422867 -1.854588 0.855389
vertex -1.804827 -1.003948 0.855389
endloop
endfacet
facet normal 0.187597 0.577354 -0.794651
outer loop
vertex -1.528442 -1.854588 0.302604
vertex -1.804827 -1.003948 0.855389
vertex -0.804842 -1.328868 0.855389
endloop
endfacet
facet normal 0.982246 0.000000 -0.187597
outer loop
vertex -0.804842 -2.380308 0.855389
vertex -0.804842 -1.328868 0.855389
vertex -0.634017 -1.854588 1.749819
endloop
endfacet
facet normal 0.303536 -0.934171 -0.187590
outer loop
vertex -1.804827 -2.705228 0.855389
vertex -0.804842 -2.380308 0.855389
vertex -1.252057 -2.705228 1.749819
endloop
endfacet
facet normal -0.794649 -0.577359 -0.187587
outer loop
vertex -2.422867 -1.854588 0.855389
vertex -1.804827 -2.705228 0.855389
vertex -2.252042 -2.380308 1.749819
endloop
endfacet
facet normal -0.794649 0.577359 -0.187587
outer loop
vertex -1.804827 -1.003948 0.855389
vertex -2.422867 -1.854588 0.855389
vertex -2.252042 -1.328868 1.749819
endloop
endfacet
facet normal 0.303536 0.934171 -0.187589
outer loop
vertex -0.804842 -1.328868 0.855389
vertex -1.804827 -1.003948 0.855389
vertex -1.252057 -1.003948 1.749819
endloop
endfacet
facet normal 0.794649 -0.577359 0.187587
outer loop
vertex -0.804842 -2.380308 0.855389
vertex -0.634017 -1.854588 1.749819
vertex -1.252057 -2.705228 1.749819
endloop
endfacet
facet normal -0.303536 -0.934172 0.187589
outer loop
vertex -1.804827 -2.705228 0.855389
vertex -1.252057 -2.705228 1.749819
vertex -2.252042 -2.380308 1.749819
endloop
endfacet
facet normal -0.982246 0.000000 0.187597
outer loop
vertex -2.422867 -1.854588 0.855389
vertex -2.252042 -2.380308 1.749819
vertex -2.252042 -1.328868 1.749819
endloop
endfacet
facet normal -0.303535 0.934172 0.187589
outer loop
vertex -1.804827 -1.003948 0.855389
vertex -2.252042 -1.328868 1.749819
vertex -1.252057 -1.003948 1.749819
endloop
endfacet
facet normal 0.794649 0.577359 0.187587
outer loop
vertex -0.804842 -1.328868 0.855389
vertex -1.252057 -1.003948 1.749819
vertex -0.634017 -1.854588 1.749819
endloop
endfacet
facet normal 0.491122 -0.356829 0.794652
outer loop
vertex -1.252057 -2.705228 1.749819
vertex -0.634017 -1.854588 1.749819
vertex -1.528442 -1.854588 2.302604
endloop
endfacet
facet normal -0.187597 -0.577354 0.794651
outer loop
vertex -2.252042 -2.380308 1.749819
vertex -1.252057 -2.705228 1.749819
vertex -1.528442 -1.854588 2.302604
endloop
endfacet
facet normal -0.607064 0.000000 0.794653
outer loop
vertex -2.252042 -1.328868 1.749819
vertex -2.252042 -2.380308 1.749819
vertex -1.528442 -1.854588 2.302604
endloop
endfacet
facet normal -0.187597 0.577354 0.794651
outer loop
vertex -1.252057 -1.003948 1.749819
vertex -2.252042 -1.328868 1.749819
vertex -1.528442 -1.854588 2.302604
endloop
endfacet
facet normal 0.491122 0.356829 0.794652
outer loop
vertex -0.634017 -1.854588 1.749819
vertex -1.252057 -1.003948 1.749819
vertex -1.528442 -1.854588 2.302604
endloop
endfacet
endsolid Exported from Blender-3.4.1
