solid Exported from Blender-3.4.1
facet normal 0.187597 -0.577354 -0.794651
outer loop
vertex 3.953624 5.508770 -2.716417
vertex 5.306008 4.526217 -1.683279
vertex 3.437069 3.918951 -1.683279
endloop
endfacet
facet normal 0.607065 0.000000 -0.794652
outer loop
vertex 5.306008 4.526217 -1.683279
vertex 3.953624 5.508770 -2.716417
vertex 5.306008 6.491323 -1.683279
endloop
endfacet
facet normal -0.491122 -0.356829 -0.794652
outer loop
vertex 3.953624 5.508770 -2.716417
vertex 3.437069 3.918951 -1.683279
vertex 2.281972 5.508770 -1.683279
endloop
endfacet
facet normal -0.491122 0.356829 -0.794652
outer loop
vertex 3.953624 5.508770 -2.716417
vertex 2.281972 5.508770 -1.683279
vertex 3.437069 7.098589 -1.683279
endloop
endfacet
facet normal 0.187597 0.577354 -0.794651
outer loop
vertex 3.953624 5.508770 -2.716417
vertex 3.437069 7.098589 -1.683279
vertex 5.306008 6.491323 -1.683279
endloop
endfacet
facet normal 0.982246 0.000000 -0.187597
outer loop
vertex 5.306008 4.526217 -1.683279
vertex 5.306008 6.491323 -1.683279
vertex 5.625275 5.508770 -0.011618
endloop
endfacet
facet normal 0.303536 -0.934171 -0.187589
outer loop
vertex 3.437069 3.918951 -1.683279
vertex 5.306008 4.526217 -1.683279
vertex 4.470178 3.918951 -0.011618
endloop
endfacet
facet normal -0.794649 -0.577360 -0.187587
outer loop
vertex 2.281972 5.508770 -1.683279
vertex 3.437069 3.918951 -1.683279
vertex 2.601238 4.526217 -0.011618
endloop
endfacet
facet normal -0.794649 0.577359 -0.187587
outer loop
vertex 3.437069 7.098589 -1.683279
vertex 2.281972 5.508770 -1.683279
vertex 2.601238 6.491323 -0.011618
endloop
endfacet
facet normal 0.303536 0.934171 -0.187589
outer loop
vertex 5.306008 6.491323 -1.683279
vertex 3.437069 7.098589 -1.683279
vertex 4.470178 7.098589 -0.011618
endloop
endfacet
facet normal 0.794649 -0.577360 0.187587
outer loop
vertex 5.306008 4.526217 -1.683279
vertex 5.625275 5.508770 -0.011618
vertex 4.470178 3.918951 -0.011618
endloop
endfacet
facet normal -0.303536 -0.934171 0.187589
outer loop
vertex 3.437069 3.918951 -1.683279
vertex 4.470178 3.918951 -0.011618
vertex 2.601238 4.526217 -0.011618
endloop
endfacet
facet normal -0.982246 0.000000 0.187597
outer loop
vertex 2.281972 5.508770 -1.683279
vertex 2.601238 4.526217 -0.011618
vertex 2.601238 6.491323 -0.011618
endloop
endfacet
facet normal -0.303536 0.934171 0.187590
outer loop
vertex 3.437069 7.098589 -1.683279
vertex 2.601238 6.491323 -0.011618
vertex 4.470178 7.098589 -0.011618
endloop
endfacet
facet normal 0.794649 0.577360 0.187587
outer loop
vertex 5.306008 6.491323 -1.683279
vertex 4.470178 7.098589 -0.011618
vertex 5.625275 5.508770 -0.011618
endloop
endfacet
facet normal 0.491122 -0.356829 0.794652
outer loop
vertex 4.470178 3.918951 -0.011618
vertex 5.625275 5.508770 -0.011618
vertex 3.953624 5.508770 1.021519
endloop
endfacet
facet normal -0.187597 -0.577353 0.794651
outer loop
vertex 2.601238 4.526217 -0.011618
vertex 4.470178 3.918951 -0.011618
vertex 3.953624 5.508770 1.021519
endloop
endfacet
facet normal -0.607065 0.000000 0.794652
outer loop
vertex 2.601238 6.491323 -0.011618
vertex 2.601238 4.526217 -0.011618
vertex 3.953624 5.508770 1.021519
endloop
endfacet
facet normal -0.187597 0.577353 0.794651
outer loop
vertex 4.470178 7.098589 -0.011618
vertex 2.601238 6.491323 -0.011618
vertex 3.953624 5.508770 1.021519
endloop
endfacet
facet normal 0.491122 0.356829 0.794652
outer loop
vertex 5.625275 5.508770 -0.011618
vertex 4.470178 7.098589 -0.011618
vertex 3.953624 5.508770 1.021519
endloop
endfacet
endsolid Exported from Blender-3.4.1
